<?xml version="1.0" standalone="no"?>
<!DOCTYPE svg PUBLIC "-//W3C//DTD SVG 1.1//EN" "http://www.w3.org/Graphics/SVG/1.1/DTD/svg11.dtd" >
<svg xmlns="http://www.w3.org/2000/svg" xmlns:xlink="http://www.w3.org/1999/xlink" version="1.1">
<metadata></metadata>
<defs>
<font id="timelineregular" horiz-adv-x="851" >
<font-face units-per-em="1024" ascent="1024" descent="0" />
<missing-glyph horiz-adv-x="876" />
<glyph unicode="&#xd;" horiz-adv-x="876" />
<glyph unicode=" "  horiz-adv-x="876" />
<glyph unicode="&#x09;" horiz-adv-x="876" />
<glyph unicode="&#xa0;" horiz-adv-x="876" />
<glyph unicode="!" horiz-adv-x="339" d="M0 0v256h256v-256h-256zM0 384v640h256v-640h-256z" />
<glyph unicode="#" horiz-adv-x="979" d="M512 512v128h-128v-128h128zM128 0v256h-128v256h128v128h-128v256h128v128h256v-128h128v128h256v-128h128v-256h-128v-128h128v-256h-128v-256h-256v256h-128v-256h-256z" />
<glyph unicode="$" d="M256 -128v128h-256v256h512v128h-384q-54 0 -91 37q-37 38 -37 91v384q0 53 37 90q38 38 91 38h128v128h256v-128h256v-256h-512v-128h384q53 0 90 -38q38 -38 38 -90v-384q0 -54 -38 -91t-90 -37h-128v-128h-256z" />
<glyph unicode="&#x26;" horiz-adv-x="979" d="M128 0q-54 0 -91 37q-37 38 -37 91v256q0 53 37 90q38 38 91 38q-54 0 -91 37q-37 38 -37 91v256q0 53 37 90q38 38 91 38h640v-256h-512v-128h128v-256h-128v-128h256v384h384v-256h-128v-256q0 -54 -38 -91t-90 -37h-512z" />
<glyph unicode="+" d="M256 128v256h-256v256h256v256h256v-256h256v-256h-256v-256h-256z" />
<glyph unicode="," horiz-adv-x="339" d="M128 -128v128q-54 0 -91 37q-37 38 -37 91t37 90q38 38 91 38t90 -38q38 -38 38 -90v-256h-128z" />
<glyph unicode="-" d="M0 384v256h768v-256h-768z" />
<glyph unicode="." horiz-adv-x="339" d="M0 0v256h256v-256h-256z" />
<glyph unicode="?" d="M256 0v256h256v-256h-256zM256 384v256h256v128h-512v256h640q53 0 90 -38q38 -38 38 -90v-384q0 -54 -38 -91t-90 -37h-384z" />
<glyph unicode="A" d="M512 640v128h-256v-128h256zM0 0v896q0 53 37 90q38 38 91 38h512q53 0 90 -38q38 -38 38 -90v-896h-256v384h-256v-384h-256z" />
<glyph unicode="B" d="M512 256v128h-256v-128h256zM512 640v128h-256v-128h256zM0 0v1024h640q53 0 90 -38q38 -38 38 -90v-256q0 -54 -38 -91t-90 -37q53 0 90 -38q38 -38 38 -90v-256q0 -54 -38 -91t-90 -37h-640z" />
<glyph unicode="C" d="M128 0q-54 0 -91 37q-37 38 -37 91v768q0 53 37 90q38 38 91 38h512q53 0 90 -38q38 -38 38 -90v-256h-256v128h-256v-512h256v128h256v-256q0 -54 -38 -91t-90 -37h-512z" />
<glyph unicode="D" d="M512 256v512h-256v-512h256zM0 0v1024h640q53 0 90 -38q38 -38 38 -90v-768q0 -54 -38 -91t-90 -37h-640z" />
<glyph unicode="E" d="M0 0v1024h768v-256h-512v-128h384v-256h-384v-128h512v-256h-768z" />
<glyph unicode="F" d="M0 0v1024h768v-256h-512v-128h384v-256h-384v-384h-256z" />
<glyph unicode="G" d="M128 0q-54 0 -91 37q-37 38 -37 91v768q0 53 37 90q38 38 91 38h640v-256h-512v-512h256v384h256v-640h-640z" />
<glyph unicode="H" d="M0 0v1024h256v-384h256v384h256v-1024h-256v384h-256v-384h-256z" />
<glyph unicode="I" horiz-adv-x="339" d="M0 0v1024h256v-1024h-256z" />
<glyph unicode="J" d="M128 0q-54 0 -91 37q-37 38 -37 91v384h256v-256h256v512h-256v256h512v-896q0 -54 -38 -91t-90 -37h-512z" />
<glyph unicode="K" d="M0 0v1024h256v-1024h-256zM512 0l-256 512l256 512h256l-256 -512l256 -512h-256z" />
<glyph unicode="L" d="M0 0v1024h256v-768h512v-256h-768z" />
<glyph unicode="M" horiz-adv-x="1107" d="M0 0v1024h320l192 -384l192 384h320v-1024h-256v640l-256 -512l-256 512v-640h-256z" />
<glyph unicode="N" d="M0 0v1024h256l256 -512v512h256v-1024h-256l-256 512v-512h-256z" />
<glyph unicode="O" d="M512 256v512h-256v-512h256zM128 0q-54 0 -91 37q-37 38 -37 91v768q0 53 37 90q38 38 91 38h512q53 0 90 -38q38 -38 38 -90v-768q0 -54 -38 -91t-90 -37h-512z" />
<glyph unicode="P" d="M512 640v128h-256v-128h256zM0 0v1024h640q53 0 90 -38q38 -38 38 -90v-384q0 -54 -38 -91t-90 -37h-384v-384h-256z" />
<glyph unicode="Q" d="M512 256v512h-256v-512h256zM256 -256v256h-128q-54 0 -91 37q-37 38 -37 91v768q0 53 37 90q38 38 91 38h512q53 0 90 -38q38 -38 38 -90v-768q0 -54 -38 -91t-90 -37h-128v-256h-256z" />
<glyph unicode="R" d="M512 640v128h-256v-128h256zM0 0v1024h640q53 0 90 -38q38 -38 38 -90v-384q0 -54 -38 -91t-90 -37h-64l192 -384h-256l-192 384h-64v-384h-256z" />
<glyph unicode="S" d="M0 0v256h512v128h-384q-54 0 -91 37q-37 38 -37 91v384q0 53 37 90q38 38 91 38h640v-256h-512v-128h384q53 0 90 -38q38 -38 38 -90v-384q0 -54 -38 -91t-90 -37h-640z" />
<glyph unicode="T" d="M256 0v768h-256v256h768v-256h-256v-768h-256z" />
<glyph unicode="U" d="M128 0q-54 0 -91 37q-37 38 -37 91v896h256v-768h256v768h256v-896q0 -54 -38 -91t-90 -37h-512z" />
<glyph unicode="V" d="M320 0l-320 640v384h256v-384l128 -256l128 256v384h256v-384l-320 -640h-128z" />
<glyph unicode="W" horiz-adv-x="1107" d="M0 0v1024h256v-640l192 384h128l192 -384v640h256v-1024h-320l-192 384l-192 -384h-320z" />
<glyph unicode="X" d="M0 0l256 512l-256 512h256l128 -256l128 256h256l-256 -512l256 -512h-256l-128 256l-128 -256h-256z" />
<glyph unicode="Y" d="M256 0v512l-256 512h256l128 -256l128 256h256l-256 -512v-512h-256z" />
<glyph unicode="Z" d="M0 0l384 768h-384v256h768l-384 -768h384v-256h-768z" />
<glyph unicode="a" d="M512 640v128h-256v-128h256zM0 0v896q0 53 37 90q38 38 91 38h512q53 0 90 -38q38 -38 38 -90v-896h-256v384h-256v-384h-256z" />
<glyph unicode="b" d="M512 256v128h-256v-128h256zM512 640v128h-256v-128h256zM0 0v1024h640q53 0 90 -38q38 -38 38 -90v-256q0 -54 -38 -91t-90 -37q53 0 90 -38q38 -38 38 -90v-256q0 -54 -38 -91t-90 -37h-640z" />
<glyph unicode="c" d="M128 0q-54 0 -91 37q-37 38 -37 91v768q0 53 37 90q38 38 91 38h512q53 0 90 -38q38 -38 38 -90v-256h-256v128h-256v-512h256v128h256v-256q0 -54 -38 -91t-90 -37h-512z" />
<glyph unicode="d" d="M512 256v512h-256v-512h256zM0 0v1024h640q53 0 90 -38q38 -38 38 -90v-768q0 -54 -38 -91t-90 -37h-640z" />
<glyph unicode="e" d="M0 0v1024h768v-256h-512v-128h384v-256h-384v-128h512v-256h-768z" />
<glyph unicode="f" d="M0 0v1024h768v-256h-512v-128h384v-256h-384v-384h-256z" />
<glyph unicode="g" d="M128 0q-54 0 -91 37q-37 38 -37 91v768q0 53 37 90q38 38 91 38h640v-256h-512v-512h256v384h256v-640h-640z" />
<glyph unicode="h" d="M0 0v1024h256v-384h256v384h256v-1024h-256v384h-256v-384h-256z" />
<glyph unicode="i" horiz-adv-x="339" d="M0 0v1024h256v-1024h-256z" />
<glyph unicode="j" d="M128 0q-54 0 -91 37q-37 38 -37 91v384h256v-256h256v512h-256v256h512v-896q0 -54 -38 -91t-90 -37h-512z" />
<glyph unicode="k" d="M0 0v1024h256v-1024h-256zM512 0l-256 512l256 512h256l-256 -512l256 -512h-256z" />
<glyph unicode="l" d="M0 0v1024h256v-768h512v-256h-768z" />
<glyph unicode="m" horiz-adv-x="1107" d="M0 0v1024h320l192 -384l192 384h320v-1024h-256v640l-256 -512l-256 512v-640h-256z" />
<glyph unicode="n" d="M0 0v1024h256l256 -512v512h256v-1024h-256l-256 512v-512h-256z" />
<glyph unicode="o" d="M512 256v512h-256v-512h256zM128 0q-54 0 -91 37q-37 38 -37 91v768q0 53 37 90q38 38 91 38h512q53 0 90 -38q38 -38 38 -90v-768q0 -54 -38 -91t-90 -37h-512z" />
<glyph unicode="p" d="M512 640v128h-256v-128h256zM0 0v1024h640q53 0 90 -38q38 -38 38 -90v-384q0 -54 -38 -91t-90 -37h-384v-384h-256z" />
<glyph unicode="q" d="M512 256v512h-256v-512h256zM256 -256v256h-128q-54 0 -91 37q-37 38 -37 91v768q0 53 37 90q38 38 91 38h512q53 0 90 -38q38 -38 38 -90v-768q0 -54 -38 -91t-90 -37h-128v-256h-256z" />
<glyph unicode="r" d="M512 640v128h-256v-128h256zM0 0v1024h640q53 0 90 -38q38 -38 38 -90v-384q0 -54 -38 -91t-90 -37h-64l192 -384h-256l-192 384h-64v-384h-256z" />
<glyph unicode="s" d="M0 0v256h512v128h-384q-54 0 -91 37q-37 38 -37 91v384q0 53 37 90q38 38 91 38h640v-256h-512v-128h384q53 0 90 -38q38 -38 38 -90v-384q0 -54 -38 -91t-90 -37h-640z" />
<glyph unicode="t" d="M256 0v768h-256v256h768v-256h-256v-768h-256z" />
<glyph unicode="u" d="M128 0q-54 0 -91 37q-37 38 -37 91v896h256v-768h256v768h256v-896q0 -54 -38 -91t-90 -37h-512z" />
<glyph unicode="v" d="M320 0l-320 640v384h256v-384l128 -256l128 256v384h256v-384l-320 -640h-128z" />
<glyph unicode="w" horiz-adv-x="1107" d="M0 0v1024h256v-640l192 384h128l192 -384v640h256v-1024h-320l-192 384l-192 -384h-320z" />
<glyph unicode="x" d="M0 0l256 512l-256 512h256l128 -256l128 256h256l-256 -512l256 -512h-256l-128 256l-128 -256h-256z" />
<glyph unicode="y" d="M256 0v512l-256 512h256l128 -256l128 256h256l-256 -512v-512h-256z" />
<glyph unicode="z" d="M0 0l384 768h-384v256h768l-384 -768h384v-256h-768z" />
<glyph unicode="&#x25fc;" horiz-adv-x="1025" d="M0 1025h1025v-1025h-1025v1025z" />
<glyph horiz-adv-x="0" />
</font>
</defs>
</svg>
